<?xml version="1.0" encoding="utf-8"?><!DOCTYPE svg PUBLIC "-//W3C//DTD SVG 1.1//EN" "http://www.w3.org/Graphics/SVG/1.1/DTD/svg11.dtd"><svg viewBox="0 0 512 512" xmlns="http://www.w3.org/2000/svg" xmlns:xlink="http://www.w3.org/1999/xlink"><style>:root>svg{display:none}:root>svg:target{display:block}</style><svg viewBox="0 0 16 12" id="burger" xmlns="http://www.w3.org/2000/svg"><g clip-path="url(#aclip0_384_247)"><path d="M0 0h16v3H0V0zM4 5h12v2H4zM1 10h15v2H1z"/></g><defs><clipPath id="aclip0_384_247"><path d="M0 0h16v12H0z"/></clipPath></defs></svg><svg viewBox="0 0 512 512" id="email" xmlns="http://www.w3.org/2000/svg"><path d="M448 64H64C28.656 64 0 92.656 0 128v256c0 35.344 28.656 64 64 64h384c35.344 0 64-28.656 64-64V128c0-35.344-28.656-64-64-64zM342.656 234.781l135.469-116.094c.938 3 1.875 6 1.875 9.313v256c0 2.219-.844 4.188-1.281 6.281l-136.063-155.5zM448 96c2.125 0 4 .813 6 1.219L256 266.938 58 97.219C60 96.813 61.875 96 64 96h384zM33.266 390.25C32.828 388.156 32 386.219 32 384V128c0-3.313.953-6.313 1.891-9.313L169.313 234.75 33.266 390.25zM64 416c-3.234 0-6.172-.938-9.125-1.844l138.75-158.563 51.969 44.531C248.578 302.719 252.297 304 256 304s7.422-1.281 10.406-3.875l51.969-44.531 138.75 158.563c-2.937.905-5.875 1.843-9.125 1.843H64z"/></svg><svg viewBox="0 0 96 96" id="info" xmlns="http://www.w3.org/2000/svg"><path d="M48 9C26.46 9 9 26.46 9 48s17.46 39 39 39 39-17.46 39-39S69.54 9 48 9zm6.117 53.349c-2.943 4.419-5.937 7.824-10.974 7.824-3.438-.561-4.851-3.024-4.107-5.535l6.48-21.462c.159-.525-.105-1.086-.585-1.257-.477-.168-1.413.453-2.223 1.341l-3.918 4.713c-.105-.792-.012-2.1-.012-2.628 2.943-4.419 7.779-7.905 11.058-7.905 3.117.318 4.593 2.811 4.05 5.55l-6.525 21.567c-.087.486.171.981.612 1.137.48.168 1.488-.453 2.301-1.341l3.915-4.71c.105.792-.072 2.178-.072 2.706zm-.873-28.032c-2.478 0-4.488-1.806-4.488-4.464s2.01-4.461 4.488-4.461 4.488 1.806 4.488 4.461c0 2.661-2.01 4.464-4.488 4.464z"/></svg><svg viewBox="0 0 19 19" id="phone" xmlns="http://www.w3.org/2000/svg"><path d="M17.77 8.68a.774.774 0 01-.774-.773A6.18 6.18 0 0015.18 3.54a6.201 6.201 0 00-4.375-1.812.774.774 0 01-.774-.772.772.772 0 01.774-.772 7.753 7.753 0 015.468 2.264 7.726 7.726 0 012.269 5.46.772.772 0 01-.774.773zm-2.322-.773a4.63 4.63 0 00-1.36-3.277 4.647 4.647 0 00-3.282-1.358.774.774 0 00-.774.773.772.772 0 00.774.772c.82 0 1.608.326 2.188.905.58.58.906 1.366.906 2.185a.772.772 0 00.774.773.774.774 0 00.774-.773zm1.69 9.396l.703-.81a2.393 2.393 0 000-3.381 441.957 441.957 0 00-1.885-1.454 2.4 2.4 0 00-3.313.005l-1.475 1.24A9.893 9.893 0 015.805 7.54l1.238-1.467a2.392 2.392 0 00.005-3.308S5.614.908 5.59.884A2.387 2.387 0 002.243.848l-.89.773c-5.256 6.088 6.064 17.302 12.363 17.1a4.768 4.768 0 003.421-1.418z"/></svg></svg>