<?xml version="1.0" encoding="utf-8"?><svg viewBox="0 0 47 29" xmlns="http://www.w3.org/2000/svg" xmlns:xlink="http://www.w3.org/1999/xlink"><style>:root>svg{display:none}:root>svg:target{display:block}</style><svg fill="none" viewBox="0 0 16 12" id="burger" xmlns="http://www.w3.org/2000/svg"><g clip-path="url(#aclip0_0_143)" fill="#000"><path d="M0 0h16v2H0zM4 5h12v2H4zM1 10h15v2H1z"/></g><defs><clipPath id="aclip0_0_143"><path fill="#fff" d="M0 0h16v12H0z"/></clipPath></defs></svg><svg fill="none" viewBox="0 0 16 14" id="close" xmlns="http://www.w3.org/2000/svg"><path fill="#000" d="M3.414 1l11.314 11.313-1.414 1.415L2 2.414z"/><path fill="#000" d="M1.636 11.95L12.95.636l1.414 1.414L3.05 13.364z"/></svg><svg fill="none" viewBox="0 0 47 29" id="msgs" xmlns="http://www.w3.org/2000/svg"><circle cx="32.819" cy="14.819" r="14.181" fill="#1C8ADB"/><path d="M29.587 17.811l-.298 4.186c.426 0 .61-.183.832-.403l1.996-1.907 4.136 3.029c.758.422 1.293.2 1.497-.698l2.715-12.722h.001c.24-1.122-.405-1.56-1.145-1.285l-15.958 6.11c-1.089.422-1.072 1.03-.185 1.304l4.08 1.27 9.477-5.93c.446-.296.851-.132.518.163l-7.666 6.883z" fill="#fff"/><circle cx="14.181" cy="14.819" r="14.181" fill="#4BB53F"/><path d="M20.324 17.95c-1.01-.863-2.036-1.387-3.034-.524l-.595.521c-.436.379-1.247 2.148-4.381-1.458-3.134-3.6-1.269-4.161-.832-4.536l.599-.522c.993-.865.618-1.954-.098-3.074l-.432-.68c-.72-1.117-1.502-1.851-2.498-.988l-.538.47c-.44.32-1.67 1.362-1.967 3.34-.36 2.375.773 5.094 3.367 8.078 2.592 2.984 5.128 4.483 7.532 4.457 1.997-.021 3.203-1.093 3.58-1.483l.54-.47c.992-.863.376-1.741-.635-2.607l-.608-.523z" fill="#fff"/></svg><svg fill="none" viewBox="0 0 19 16" id="tg" xmlns="http://www.w3.org/2000/svg"><path d="M17.64 1.5L1.174 8l6.067.867M17.64 1.5l-2.167 13L7.24 8.867M17.64 1.5L7.24 8.867m0 0v4.766l2.815-2.84" stroke="#000" stroke-width="1.3" stroke-linecap="round" stroke-linejoin="round"/></svg><svg fill="none" viewBox="0 0 21 20" id="wa" xmlns="http://www.w3.org/2000/svg"><path fill-rule="evenodd" clip-rule="evenodd" d="M17.329 3.042A9.658 9.658 0 0010.452.191C5.094.19.732 4.55.73 9.912a9.72 9.72 0 001.297 4.86L.65 19.81l5.153-1.352a9.727 9.727 0 004.646 1.183h.004c5.358 0 9.72-4.36 9.722-9.721a9.666 9.666 0 00-2.845-6.877zM10.452 18h-.003a8.064 8.064 0 01-4.113-1.128l-.294-.175-3.059.802.816-2.981-.192-.305a8.066 8.066 0 01-1.235-4.3c.002-4.456 3.626-8.08 8.084-8.08a8.028 8.028 0 015.712 2.37 8.035 8.035 0 012.364 5.716c-.002 4.455-3.627 8.08-8.08 8.08zm4.433-6.053c-.244-.122-1.437-.71-1.66-.79-.222-.082-.384-.122-.546.12-.163.243-.628.79-.77.953-.142.162-.284.182-.526.06-.243-.12-1.026-.377-1.954-1.205-.722-.644-1.21-1.44-1.351-1.683-.142-.243-.016-.374.107-.496.11-.108.242-.283.364-.425.12-.142.16-.243.242-.405.081-.163.041-.305-.02-.426-.061-.122-.547-1.318-.75-1.804-.196-.471-.396-.408-.546-.415-.14-.006-.303-.008-.464-.008a.895.895 0 00-.649.303c-.223.243-.85.83-.85 2.026 0 1.195.87 2.35.992 2.513.121.163 1.713 2.616 4.15 3.668.58.25 1.033.4 1.385.512.581.186 1.11.159 1.53.097.467-.07 1.437-.587 1.64-1.155.202-.567.202-1.053.141-1.155-.06-.102-.224-.164-.465-.285z" fill="#000"/></svg></svg>